<?xml version="1.0" encoding="UTF-8"?>
<svg width="853px" height="234px" viewBox="0 0 853 234" version="1.1" xmlns="http://www.w3.org/2000/svg" xmlns:xlink="http://www.w3.org/1999/xlink">
    <title>logo 2</title>
    <defs>
        <polygon id="path-1" points="0 0 88 0 88 83 0 83"></polygon>
        <polygon id="path-3" points="0 0 144 0 144 70 0 70"></polygon>
    </defs>
    <g id="页面-1" stroke="none" stroke-width="1" fill="none" fill-rule="evenodd">
        <g id="首页改" transform="translate(-534.000000, -319.000000)">
            <g id="logo" transform="translate(534.000000, 319.000000)">
                <path d="M240.476023,180.550768 C246.700511,184.225805 257.971665,188.669759 268.83158,188.650043 C284.059417,188.630328 293.921178,178.938011 293.921178,167.38846 C293.921178,157.222963 289.285751,150.858684 275.611042,143.374543 C260.351264,135.038678 251.775126,123.524616 251.775126,110.173036 C251.775126,87.4367063 271.754175,70 299.558752,70 C311.516636,70 322.065127,73.1663671 327,76.4628588 L320.659726,93.3278052 C316.116129,90.7253117 307.779548,87.3893882 297.929764,87.3893882 C284.139269,87.3893882 274.413257,95.8711511 274.413257,106.951464 C274.413257,116.541258 280.741553,122.321948 292.531748,128.879443 C307.216589,137.085184 317.150217,148.453349 317.150217,163.090403 C317.150217,190.459959 294.611901,206 266.807324,206 C252.625553,206 239.988924,201.591534 234,197.072659 L240.476023,180.550768 Z" id="Fill-1" fill="#02253B"></path>
                <path d="M360.203595,151.704785 C360.203595,172.843008 372.039595,188.324412 391.274063,188.324412 C417.712525,188.324412 437.800359,154.300776 437.800359,124.050979 C437.800359,108.861082 430.727345,87.675588 407.249864,87.675588 C378.92209,87.675588 360.183765,121.892249 360.203595,151.704785 M461,124.09825 C461,164.282934 432.259435,206 388.178131,206 C355.357287,206 337,181.848222 337,152.587186 C337,109.601668 367.06229,70 409.698825,70 C445.048014,70 461,96.5350481 461,124.09825" id="Fill-3" fill="#02253B"></path>
                <path d="M571.693614,89.6013324 C568.541728,88.5929037 563.678933,87.7577987 556.096941,87.7577987 C522.156611,87.7577987 494.4486,122.796756 494.305693,158.989891 C494.210422,173.537263 499.374909,187.694656 516.686462,187.694656 C535.506474,187.694656 557.537916,163.445098 564.071926,128.859146 L571.693614,89.6013324 Z M557.109196,203.04168 C557.017895,195.210601 558.343751,182.908559 560.034813,169.432643 L559.451278,169.432643 C545.29558,196.447502 527.194071,206 508.695599,206 C485.461359,206 471,187.686778 471,163.019667 C471,117.699464 504.598941,70 561.630604,70 C574.19845,70 587.917488,72.1310934 597,74.9318465 L583.626319,142.736857 C579.283545,165.375293 577.477364,188.62824 578.072808,203.04168 L557.109196,203.04168 Z" id="Fill-5" fill="#02253B"></path>
                <path d="M608,204 L623.976519,119.603766 C627.187661,102.522962 629.167403,85.1287123 630.616575,72.9797175 L650.366483,72.9797175 C649.3093,82.0855121 648.248158,91.2428863 646.723757,101.443757 L647.511694,101.443757 C656.091897,83.4940337 670.056998,70 687.589595,70 C689.656446,70 692.253867,70.1626743 694,70.488023 L689.640608,92.6593433 C688.072652,92.3538329 686.077072,92.1911586 683.535083,92.1911586 C664.137569,92.1911586 646.842541,115.771001 641.180479,146.199035 L630.371087,204 L608,204 Z" id="Fill-7" fill="#02253B"></path>
                <path d="M231,25.3555806 C213.94086,24.1615244 191.625768,24.3979712 161.337898,52.4760258 C151.410426,61.6777462 134.600065,79.7343983 125.14251,88.9400594 C120.099797,93.8581523 114.571372,97.7713465 106.957941,101.420508 C93.5436129,107.840038 79.6830619,112.29706 62,116.403352 C62,116.403352 81.9655116,122.089897 91.51784,131 C91.51784,131 119.440335,103.414543 133.056055,90.8198113 C142.588639,82.0042873 175.996121,54.8483751 193.845036,58.5408856 L231,25.3555806 Z" id="Fill-9" fill="#02253B"></path>
                <path d="M231.131062,25 C231.131062,25 235.113983,38.5456149 226.025359,58.0324969 C226.025359,58.0324969 213.74961,84.2665093 167.337351,117.429366 C167.337351,117.429366 152.701791,129.118335 150.665025,134.557913 C150.665025,134.557913 130.506165,181.033317 126.65325,184 C126.65325,184 120.318396,158.599503 107.73536,145.409416 L98.1109521,155.534062 L91,148.095627 L132.401106,116.508944 L111.316443,141.285292 C111.316443,141.285292 118.852871,152.342211 119.14046,153.519404 C119.14046,153.519404 202.502093,85.6649193 194.051682,58.2813665 C194.855357,56.4207702 231.131062,25 231.131062,25" id="Fill-11" fill="#02253B"></path>
                <g id="编组" transform="translate(0.000000, 151.000000)">
                    <mask id="mask-2" fill="white">
                        <use xlink:href="#path-1"></use>
                    </mask>
                    <g id="Clip-14"></g>
                    <path d="M0,83.0015929 C15.2534618,61.0875514 26.6717901,45.9034263 40.057158,30.2613483 C44.8105071,24.7101628 73.8411616,-10.1699189 85.5998629,2.91558729 C93.8519303,12.0945562 80.0232859,27.3105388 56.3990219,45.1945949 C41.1376445,56.7350078 23.9408901,69.8882113 0,83.0015929" id="Fill-13" fill="#EE5B38" mask="url(#mask-2)"></path>
                </g>
                <path d="M41,194 C48.8593856,183.085377 54.7378524,175.537532 61.6128057,167.786115 C64.0477687,165.037885 78.9669397,147.742045 84.8293342,154.593045 C88.9358229,159.40049 81.8398746,166.936591 69.7775661,175.651063 C61.9583615,181.288458 53.1868693,187.708824 41,194" id="Fill-15" fill="#FBB03B"></path>
                <g id="编组" transform="translate(709.000000, 0.000000)">
                    <mask id="mask-4" fill="white">
                        <use xlink:href="#path-3"></use>
                    </mask>
                    <g id="Clip-18"></g>
                    <path d="M109.549124,70 L34.4477259,70 C15.4203583,70 0,54.3293136 0,35.0020003 C0,15.6706864 15.4203583,0 34.4477259,0 L109.549124,0 C128.576491,0 144.000788,15.6706864 144.000788,35.0020003 C144.000788,54.3293136 128.576491,70 109.549124,70" id="Fill-17" fill="#02253B" mask="url(#mask-4)"></path>
                </g>
                <path d="M771.929909,16.3569313 L777,22.3616509 C774.756182,23.9135665 771.062091,26.3051083 765.929455,29.5322969 C764.803636,30.3042754 763.959273,30.8852489 763.400273,31.2752175 C766.715182,32.9504905 770.163,34.6894318 773.724182,36.5 L769.819,42.6997039 C766.566636,40.5071257 763.122727,38.3742365 759.467727,36.3129743 C759.463818,39.1541736 759.612364,41.7367203 759.921182,44.0566352 C760.167455,47.801129 761.672455,50.2603183 764.428364,51.4143069 C765.894273,51.8042754 767.031818,51.3585971 767.848818,50.0613548 C768.916,47.8687766 769.881545,45.4772349 770.737636,42.8986674 C771.210636,43.1533407 771.906455,43.6109569 772.840727,44.2516195 C773.778909,44.7729039 774.842182,45.3498982 776.014909,45.9945401 C774.486455,49.7430131 773.016636,52.5802332 771.613273,54.5221173 C769.768182,56.8420322 767.516545,58 764.850545,58 C758.760182,58 754.960545,54.7131223 753.467273,48.1194707 C752.505636,43.0896724 752.935636,34.0487692 754.737727,21.0086989 L734,21.0086989 L734.828727,15 L762.039909,15 C761.555182,18.4898205 761.031364,22.2979826 760.452818,26.4324449 C764.592545,23.0699611 768.427364,19.7154359 771.929909,16.3569313" id="Fill-19" fill="#FFFFFF"></path>
                <path d="M814.09009,30.6558385 L817.201201,26.618086 C820.356356,28.1549605 823.675676,29.95259 827.155155,31.999122 L824.192192,36.4240562 C821.80981,34.8871817 818.442442,32.9670764 814.09009,30.6558385 M809.617618,45.6611062 C811.787788,44.1163301 813.577578,42.4569798 815.011011,40.6553995 L805.845846,40.6553995 C806.742743,42.5834065 808,44.2467076 809.617618,45.6611062 M809.457457,35.8432836 L821.92993,35.8432836 L821.245245,40.6553995 C819.511512,43.7330992 817.177177,46.427568 814.25025,48.7348551 C817.065065,49.8924495 820.524525,50.7221247 824.612613,51.2357331 C824.28028,51.7532924 823.6997,52.5829675 822.886887,53.7366111 C822.058058,55.0166813 821.409409,55.9135206 820.952953,56.4231782 C815.635636,55.3999122 811.627628,53.9262511 808.904905,52.0021949 C804.692693,54.1791045 799.91992,55.8503073 794.558559,57 C794.014014,55.332748 793.337337,53.665496 792.532533,52.0021949 C797.193193,51.2357331 801.253253,50.0820896 804.724725,48.5412643 C803.723724,47.3836699 802.750751,46.0443371 801.793794,44.5074627 C800.444444,45.7875329 799.015015,47.0676032 797.541542,48.3516242 C796.576577,46.9411765 795.523524,45.5978929 794.414414,44.3059701 C799.355355,40.5921861 803.139139,36.8744513 805.745746,33.1567164 L811.395395,33.1567164 C811.231231,33.4174715 810.906907,33.8599649 810.43043,34.5039508 C810.094094,35.0175593 809.76977,35.4679543 809.457457,35.8432836 M780,38.7352941 C783.059059,34.6343284 785.473473,30.4661984 787.243243,26.2348551 L782.374374,26.2348551 L783.195195,20.4626866 L788.26026,20.4626866 L789.413413,12.3871817 L795.255255,12.3871817 L794.106106,20.4626866 L798.194194,20.4626866 L797.373373,26.2348551 L793.281281,26.2348551 L792.952953,28.5381914 C794.558559,30.0790167 795.867868,31.3630378 796.892893,32.3863038 C800.1001,30.8494293 803.411411,28.9885865 806.838839,26.8116769 C803.707708,26.9381036 801.597598,27.1277436 800.520521,27.3884987 L799.155155,22.0074627 C801.853854,21.2291484 805.777778,17.8985953 810.898899,12 L816.508509,13.7344162 C815.431431,14.8880597 812.520521,17.5114135 807.77978,21.6163301 C809.337337,21.6163301 811.499499,21.5531168 814.242242,21.4266901 L818.526527,21.4266901 C818.322322,21.0395083 818.006006,20.5298507 817.577578,19.881914 C816.920921,18.9890255 816.432432,18.3489903 816.096096,17.9618086 L820.4004,15.0776997 C821.281281,16.2313433 822.594595,17.9618086 824.344344,20.2730465 C826.022022,22.1931519 827.239239,23.6707638 828,24.6940299 L823.191191,28.3485514 C822.966967,28.095698 822.646647,27.6413521 822.218218,27.0013169 C821.901902,26.4877085 821.681682,26.1716418 821.577578,26.0373134 C815.575576,26.1716418 810.798799,26.428446 807.231231,26.8116769 L809.833834,30.4661984 C808.556557,31.2326602 806.770771,32.3270413 804.500501,33.7335382 C801.381381,35.5272169 799.183183,36.8112379 797.90991,37.5776997 C797.817818,37.3248464 797.657658,37.0680421 797.433433,36.8112379 C797.261261,36.1712028 797.125125,35.7247586 797.041041,35.4679543 L794.262262,38.5417032 C793.721722,37.7752414 792.952953,36.8112379 791.943944,35.6575944 L788.900901,57 L783.059059,57 L785.633634,38.928885 C783.71972,42.2633889 781.973974,44.9578578 780.384384,47.0083406 C780.292292,44.9578578 780.152152,42.1962248 780,38.7352941" id="Fill-21" fill="#FFFFFF"></path>
            </g>
        </g>
    </g>
</svg>