<?xml version="1.0" encoding="UTF-8"?>
<svg width="23px" height="23px" viewBox="0 0 23 23" version="1.1" xmlns="http://www.w3.org/2000/svg" xmlns:xlink="http://www.w3.org/1999/xlink">
    <title>增加 2</title>
    <g id="页面-1" stroke="none" stroke-width="1" fill="none" fill-rule="evenodd">
        <g id="事务放大" transform="translate(-1637.000000, -470.000000)" fill="#666666" fill-rule="nonzero">
            <g id="增加" transform="translate(1637.000000, 470.000000)">
                <path d="M11.5,23 C5.14883751,23 0,17.8511625 0,11.5 C0,5.14883751 5.14883751,0 11.5,0 C17.8511625,0 23,5.14883749 23,11.5 C23,17.8511625 17.8511625,23 11.5,23 Z M11.5,21.275 C16.898675,21.275 21.275,16.898675 21.275,11.5 C21.275,6.101325 16.898675,1.725 11.5,1.725 C6.101325,1.725 1.725,6.101325 1.725,11.5 C1.725,16.898675 6.101325,21.275 11.5,21.275 Z M12.3625,10.6375 L15.8125,10.6375 C16.2888456,10.6375 16.675,11.0236544 16.675,11.5 C16.675,11.9763456 16.2888456,12.3625 15.8125,12.3625 L12.3625,12.3625 L12.3625,15.8125 C12.3625,16.2888456 11.9763456,16.675 11.5,16.675 C11.0236544,16.675 10.6375,16.2888456 10.6375,15.8125 L10.6375,12.3625 L7.1875,12.3625 C6.71115441,12.3625 6.325,11.9763456 6.325,11.5 C6.325,11.0236544 6.71115441,10.6375 7.1875,10.6375 L10.6375,10.6375 L10.6375,7.1875 C10.6375,6.71115441 11.0236544,6.325 11.5,6.325 C11.9763456,6.325 12.3625,6.71115441 12.3625,7.1875 L12.3625,10.6375 Z" id="形状"></path>
            </g>
        </g>
    </g>
</svg>