<?xml version="1.0" encoding="UTF-8"?>
<svg width="23px" height="23px" viewBox="0 0 23 23" version="1.1" xmlns="http://www.w3.org/2000/svg" xmlns:xlink="http://www.w3.org/1999/xlink">
    <title>关闭 3</title>
    <g id="页面-1" stroke="none" stroke-width="1" fill="none" fill-rule="evenodd">
        <g id="事务放大" transform="translate(-1647.000000, -523.000000)" fill="#666666" fill-rule="nonzero">
            <g id="关闭" transform="translate(1647.000000, 523.000000)">
                <polygon id="路径" points="21.9013996 18.6392774 21.9081242 18.6392774 21.9081242 18.5988178"></polygon>
                <path d="M23,11.4999859 C23,5.1582956 17.8405857,0 11.5001981,0 C5.15822579,0 0,5.1582956 0,11.4999859 C0,17.8412516 5.15822579,23 11.5001981,23 C17.8405574,23 23,17.8412516 23,11.4999859 M11.5001981,21.3499205 C6.06953801,21.3499205 1.65042511,16.9299271 1.65042511,11.4999859 C1.65042511,6.06928055 6.06953798,1.65050405 11.5001981,1.65050405 C16.9300092,1.65050405 21.3491787,6.06928055 21.3491787,11.4999859 C21.3491787,16.9299271 16.9300092,21.3499205 11.5001981,21.3499205" id="形状"></path>
                <path d="M16.1891028,15.031109 L12.6463098,11.4754247 L16.1858604,7.97289538 C16.5071712,7.65543264 16.509596,7.13657912 16.192317,6.81502535 C15.8750663,6.4930766 15.3557416,6.49062198 15.0343744,6.80890295 L11.4916096,10.3155233 L8.00159774,6.81217575 C7.68192222,6.49225839 7.16417648,6.49065022 6.8436833,6.81053933 C6.52397959,7.13087991 6.52397959,7.64891523 6.84204798,7.96886078 L10.3279997,11.4673273 L6.81447323,14.9450002 C6.4931342,15.2632811 6.48989178,15.7805547 6.80798838,16.1021649 C6.9686438,16.264564 7.17802027,16.3457072 7.38897565,16.3457072 C7.5967168,16.3457072 7.80603687,16.2661722 7.96511337,16.109444 L11.4834895,12.6268619 L15.0295248,16.1882172 C15.1893908,16.3481336 15.3995285,16.4285714 15.6096945,16.4285714 C15.8190709,16.4285714 16.0275451,16.3481336 16.1874393,16.1898255 C16.5071712,15.8707545 16.5079325,15.3526345 16.1891028,15.031109" id="路径"></path>
            </g>
        </g>
    </g>
</svg>