<?xml version="1.0" encoding="UTF-8"?>
<svg width="232px" height="209px" viewBox="0 0 232 209" version="1.1" xmlns="http://www.w3.org/2000/svg" xmlns:xlink="http://www.w3.org/1999/xlink">
    <title>logo图标</title>
    <defs>
        <polygon id="path-1" points="0 0 88 0 88 83 0 83"></polygon>
    </defs>
    <g id="页面-1" stroke="none" stroke-width="1" fill="none" fill-rule="evenodd">
        <g id="首页" transform="translate(-53.000000, -84.000000)">
            <g id="logo图标" transform="translate(53.000000, 84.000000)">
                <path d="M231,0.355580637 C213.94086,-0.83847558 191.625768,-0.602028805 161.337898,27.4760258 C151.410426,36.6777462 134.600065,54.7343983 125.14251,63.9400594 C120.099797,68.8581523 114.571372,72.7713465 106.957941,76.4205084 C93.5436129,82.8400383 79.6830619,87.29706 62,91.4033524 C62,91.4033524 81.9655116,97.0898973 91.51784,106 C91.51784,106 119.440335,78.4145428 133.056055,65.8198113 C142.588639,57.0042873 175.996121,29.8483751 193.845036,33.5408856 L231,0.355580637 Z" id="Fill-9" fill="#02253B"></path>
                <path d="M231.131062,0 C231.131062,0 235.113983,13.5456149 226.025359,33.0324969 C226.025359,33.0324969 213.74961,59.2665093 167.337351,92.4293665 C167.337351,92.4293665 152.701791,104.118335 150.665025,109.557913 C150.665025,109.557913 130.506165,156.033317 126.65325,159 C126.65325,159 120.318396,133.599503 107.73536,120.409416 L98.1109521,130.534062 L91,123.095627 L132.401106,91.5089441 L111.316443,116.285292 C111.316443,116.285292 118.852871,127.342211 119.14046,128.519404 C119.14046,128.519404 202.502093,60.6649193 194.051682,33.2813665 C194.855357,31.4207702 231.131062,0 231.131062,0" id="Fill-11" fill="#02253B"></path>
                <g id="编组" transform="translate(0.000000, 126.000000)">
                    <mask id="mask-2" fill="white">
                        <use xlink:href="#path-1"></use>
                    </mask>
                    <g id="Clip-14"></g>
                    <path d="M0,83.0015929 C15.2534618,61.0875514 26.6717901,45.9034263 40.057158,30.2613483 C44.8105071,24.7101628 73.8411616,-10.1699189 85.5998629,2.91558729 C93.8519303,12.0945562 80.0232859,27.3105388 56.3990219,45.1945949 C41.1376445,56.7350078 23.9408901,69.8882113 0,83.0015929" id="Fill-13" fill="#EE5B38" mask="url(#mask-2)"></path>
                </g>
                <path d="M41,169 C48.8593856,158.085377 54.7378524,150.537532 61.6128057,142.786115 C64.0477687,140.037885 78.9669397,122.742045 84.8293342,129.593045 C88.9358229,134.40049 81.8398746,141.936591 69.7775661,150.651063 C61.9583615,156.288458 53.1868693,162.708824 41,169" id="Fill-15" fill="#FBB03B"></path>
            </g>
        </g>
    </g>
</svg>