<?xml version="1.0" standalone="no"?><!DOCTYPE svg PUBLIC "-//W3C//DTD SVG 1.1//EN" "http://www.w3.org/Graphics/SVG/1.1/DTD/svg11.dtd"><svg t="1706173455704" class="icon" viewBox="0 0 1024 1024" version="1.1" xmlns="http://www.w3.org/2000/svg" p-id="9568" xmlns:xlink="http://www.w3.org/1999/xlink" width="200" height="200"><path d="M284.315826 121.410783l-11.219478-3.784348-4.051478 11.709217-176.795827 91.89287c-29.42887 15.270957-46.436174 27.692522-53.248 39.312695-6.233043 7.078957-10.061913 13.757217-10.061913 23.685566v494.191304c0 17.942261 13.445565 33.569391 30.809044 39.001043l563.333565 175.816348c4.096 1.202087 8.637217 1.825391 12.777739 1.825392a41.850435 41.850435 0 0 0 27.781565-10.507131l315.302957-281.243826c9.794783-8.770783 16.11687-18.610087 16.11687-30.363826V231.913739c0-4.274087-0.26713-8.548174-0.801392-12.777739a23.418435 23.418435 0 0 0-3.472695-9.794783l-3.428174-5.253565c-2.849391-8.013913-11.664696-16.339478-22.26087-20.569043a85.926957 85.926957 0 0 0-22.706087-11.575652L485.910261 30.764522a43.853913 43.853913 0 0 0-33.079652 3.116521L284.315826 121.410783z" fill="#666666" p-id="9569"></path><path d="M951.652174 208.361739L471.930435 60.104348 288.100174 155.514435l488.047304 162.548869z" fill="#666666" p-id="9570"></path><path d="M474.913391 93.584696l402.476522 124.393739-105.338435 65.892174L367.749565 149.23687zM296.826435 182.628174l402.476522 124.393739-105.338435 65.892174L189.662609 238.280348zM76.755478 292.908522c386.893913 99.283478 491.119304 127.866435 525.222957 136.102956l11.842782 512.089044-537.065739-167.579826V292.953043z" fill="#FFFFFF" p-id="9571"></path><path d="M962.82713 676.953043V205.467826l-338.810434 211.033044 12.510608 551.44626zM165.665391 489.605565a31.565913 31.565913 0 0 0 21.548522 39.179131l231.067826 67.227826a31.699478 31.699478 0 0 0 39.312696-21.370435 31.610435 31.610435 0 0 0-21.504-39.223652l-231.15687-67.227826a31.744 31.744 0 0 0-39.268174 21.370434z" fill="#666666" p-id="9572"></path><path d="M924.493913 548.329739h-71.368348c-6.41113 0-11.353043-6.233043-10.284522-12.955826l25.377392-166.199652c1.691826-10.863304-10.907826-17.452522-17.986783-9.438609l-179.556174 205.245218c-6.233043 7.168-1.558261 18.832696 7.568696 18.832695h71.368348c6.455652 0 11.353043 6.233043 10.329043 12.911305l-25.377391 166.244173c-1.691826 10.863304 10.907826 17.452522 17.942261 9.394087l179.600695-205.245217c6.233043-7.123478 1.513739-18.788174-7.613217-18.788174z" fill="#FFFFFF" p-id="9573"></path></svg>