<?xml version="1.0" encoding="UTF-8"?>
<svg width="144px" height="144px" viewBox="0 0 144 144" version="1.1" xmlns="http://www.w3.org/2000/svg" xmlns:xlink="http://www.w3.org/1999/xlink">
    <title>电脑1</title>
    <g id="soar-web端-z✅" stroke="none" stroke-width="1" fill="none" fill-rule="evenodd">
        <g id="图标" transform="translate(-521.000000, -30.000000)" fill-rule="nonzero">
            <g id="电脑1" transform="translate(521.000000, 30.000000)">
                <rect id="矩形" fill="#07BE51" x="0" y="0" width="144" height="144"></rect>
                <g id="编组" transform="translate(37.000000, 40.000000)" fill="#FFFFFF">
                    <path d="M60.9706258,50.8764045 L9.0293742,50.8764045 C4.02298851,50.8764045 0,46.8314607 0,41.7977528 L0,9.07865169 C0,4.04494382 4.02298851,0 9.0293742,0 L60.9706258,0 C65.9770115,0 70,4.13483146 70,9.07865169 L70,41.7078652 C70,46.741573 65.9770115,50.8764045 60.9706258,50.8764045 Z M9.0293742,4.58426966 C6.52618135,4.58426966 4.46998723,6.65168539 4.46998723,9.16853933 L4.46998723,41.7977528 C4.46998723,44.3146067 6.52618135,46.3820225 9.0293742,46.3820225 L60.9706258,46.3820225 C63.4738186,46.3820225 65.5300128,44.3146067 65.5300128,41.7977528 L65.5300128,9.07865169 C65.5300128,6.56179775 63.4738186,4.49438202 60.9706258,4.49438202 L9.0293742,4.49438202 L9.0293742,4.58426966 Z M11.890166,64 C9.92337165,64 8.76117497,61.9325843 9.65517241,60.2247191 L11.890166,55.8202247 C12.3371648,55.011236 13.2311622,54.4719101 14.1251596,54.4719101 L56.2324393,54.4719101 C57.2158365,54.4719101 58.0204342,55.011236 58.467433,55.8202247 L60.7918263,60.2247191 C61.6858238,61.9325843 60.4342273,64 58.5568327,64 L11.890166,64 Z" id="形状"></path>
                    <polygon id="路径" points="27.8927203 47.1011236 41.9284802 47.1011236 41.9284802 57.9775281 27.8927203 57.9775281"></polygon>
                </g>
            </g>
        </g>
    </g>
</svg>