<?xml version="1.0" standalone="no"?><!DOCTYPE svg PUBLIC "-//W3C//DTD SVG 1.1//EN" "http://www.w3.org/Graphics/SVG/1.1/DTD/svg11.dtd"><svg t="1714975635584" class="icon" viewBox="0 0 1024 1024" version="1.1" xmlns="http://www.w3.org/2000/svg" p-id="2304" xmlns:xlink="http://www.w3.org/1999/xlink" width="200" height="200"><path d="M891.904 824.149333H132.096C58.823111 824.149333 0 762.538667 0 685.909333V138.24C0 61.610667 58.823111 0 132.096 0h759.808C965.176889 0 1024 62.976 1024 138.24v546.247111c0 76.686222-58.823111 139.662222-132.096 139.662222zM132.096 69.802667c-36.636444 0-66.730667 31.516444-66.730667 69.859555v546.190222c0 38.343111 30.151111 69.802667 66.730667 69.802667h759.808c36.636444 0 66.730667-31.459556 66.730667-69.802667V138.24c0-38.286222-30.151111-69.802667-66.730667-69.802667H132.096v1.365334zM856.576 1024h-682.666667c-28.728889 0-45.738667-31.459556-32.654222-57.457778l32.654222-67.128889a38.286222 38.286222 0 0 1 32.711111-20.48H822.613333c14.392889 0 26.168889 8.192 32.654223 20.48l34.019555 67.128889c13.084444 25.998222-5.233778 57.457778-32.711111 57.457778z" fill="#07be51" p-id="2305"></path><path d="M390.087111 768h195.072v153.6H390.087111z" fill="#07be51" p-id="2306"></path></svg>