<?xml version="1.0" standalone="no"?><!DOCTYPE svg PUBLIC "-//W3C//DTD SVG 1.1//EN" "http://www.w3.org/Graphics/SVG/1.1/DTD/svg11.dtd"><svg t="1706173816444" class="icon" viewBox="0 0 1204 1024" version="1.1" xmlns="http://www.w3.org/2000/svg" p-id="9713" xmlns:xlink="http://www.w3.org/1999/xlink" width="235.15625" height="200"><path d="M1059.538824 1014.482824H144.564706c-57.825882 0-144.564706-40.598588-144.564706-152.214589V202.872471h192.752941V0H1204.705882l-3.011764 895.518118c0 54.814118-7.348706 76.137412-29.696 92.762353-11.264 8.794353-31.804235 26.202353-112.459294 26.202353z" fill="#666666" p-id="9714"></path><path d="M324.848941 63.427765v832.210823c-0.240941 18.672941-2.831059 37.345882-7.830588 55.416471h838.475294c23.371294 0 33.671529-8.252235 36.261647-11.083294 12.950588-16.624941 12.950588-44.333176 12.950588-44.333177V63.427765H324.848941z" fill="#666666" p-id="9715"></path><path d="M126.795294 264.553412v571.211294c0 41.562353 25.6 51.922824 46.682353 51.922823 41.923765 0 46.682353-36.382118 46.682353-51.922823V264.553412h-93.364706z m654.456471 289.731764H478.810353c-26.202353 0-47.706353-24.576-47.706353-54.693647s21.504-54.693647 47.706353-54.693647h302.381176c26.202353 0 47.706353 24.576 47.706353 54.693647 0 30.057412-21.504 54.693647-47.646117 54.693647z m186.849882-191.367529H504.048941c-25.479529 0-46.381176-24.576-46.381176-54.693647 0-29.997176 20.901647-54.573176 46.381176-54.573176h464.052706c25.479529 0 46.381176 24.576 46.381177 54.573176 0 30.117647-20.901647 54.693647-46.381177 54.693647z m0 382.614588H504.048941c-25.479529 0-46.381176-24.576-46.381176-54.633411 0-30.057412 20.901647-54.633412 46.381176-54.633412h464.052706c25.479529 0 46.381176 24.576 46.381177 54.633412 0 30.117647-20.901647 54.633412-46.381177 54.633411z" fill="#FFFFFF" p-id="9716"></path></svg>